<svg xmlns="http://www.w3.org/2000/svg" viewBox="0 0 512 512"><path d="M198,42 L200,42 L202,39 L204,39 L211,33 L231,25 L246,22 L273,23 L291,28 L309,38 L327,55 L327,57 L334,65 L346,88 L348,89 L353,100 L355,101 L357,107 L359,108 L361,114 L363,115 L368,126 L370,127 L372,133 L374,134 L376,140 L378,141 L387,159 L389,160 L398,178 L400,179 L402,185 L404,186 L413,204 L415,205 L417,211 L419,212 L428,230 L430,231 L432,237 L437,243 L446,261 L448,262 L458,282 L463,288 L473,308 L478,314 L487,332 L489,333 L499,353 L501,354 L510,377 L512,389 L512,408 L506,432 L493,455 L487,460 L487,462 L483,466 L481,466 L476,472 L474,472 L467,478 L446,487 L430,490 L81,490 L66,487 L46,479 L45,477 L37,473 L35,470 L33,470 L21,458 L21,456 L18,454 L18,452 L12,445 L3,424 L0,408 L0,389 L6,365 L18,342 L20,341 L22,335 L24,334 L29,323 L31,322 L33,316 L35,315 L37,309 L39,308 L48,290 L50,289 L52,283 L57,277 L74,245 L76,244 L78,238 L80,237 L89,219 L91,218 L100,200 L102,199 L104,193 L106,192 L115,174 L117,173 L119,167 L121,166 L130,148 L135,142 L145,122 L150,116 L160,96 L165,90 L171,77 L173,76 L174,72 L176,71 L177,67 L179,66 L183,58 L186,56 L186,54Z M222,76 L212,89 L195,121 L190,127 L188,133 L186,134 L181,145 L179,146 L169,166 L164,172 L162,178 L160,179 L155,190 L153,191 L143,211 L138,217 L132,230 L130,231 L117,256 L112,262 L95,294 L93,295 L91,301 L86,307 L77,325 L75,326 L65,346 L60,352 L51,370 L49,371 L43,385 L41,397 L42,409 L47,423 L55,432 L55,434 L65,442 L77,447 L91,449 L421,449 L434,447 L446,442 L460,430 L467,418 L470,408 L470,389 L467,379 L460,366 L458,365 L456,359 L454,358 L452,352 L450,351 L448,345 L443,339 L441,333 L439,332 L437,326 L435,325 L433,319 L428,313 L426,307 L424,306 L422,300 L420,299 L418,293 L413,287 L407,274 L402,268 L392,248 L387,242 L377,222 L372,216 L362,196 L357,190 L351,177 L346,171 L336,151 L331,145 L321,125 L316,119 L306,99 L301,93 L299,87 L293,81 L293,79 L285,72 L276,67 L266,64 L254,63 L242,65 L230,70 L224,76Z M239,171 L248,166 L264,166 L272,170 L277,175 L282,186 L282,209 L276,293 L276,316 L271,327 L268,328 L266,331 L260,333 L252,333 L243,329 L238,323 L236,316 L229,189 L233,178Z M241,355 L250,351 L262,351 L271,355 L278,362 L282,373 L282,382 L280,389 L270,400 L257,404 L249,403 L239,398 L233,391 L230,384 L230,371 L234,362Z" fill="#000" fill-rule="evenodd"/></svg>
